<svg width="73" height="26" fill="none" xmlns="http://www.w3.org/2000/svg"><path d="M62.05 3.881c-1.988 0-3.93.506-5.583 1.453-1.652.947-2.94 2.293-3.7 3.869a7.49 7.49 0 00-.573 4.98c.388 1.673 1.344 3.209 2.75 4.415 1.405 1.205 3.195 2.027 5.145 2.36 1.948.332 3.968.161 5.805-.491 1.835-.653 3.405-1.758 4.508-3.175 1.105-1.418 1.694-3.085 1.694-4.79-.003-2.285-1.062-4.476-2.945-6.093-1.884-1.616-4.438-2.525-7.102-2.528zm0 13.923a6.93 6.93 0 01-3.434-.893c-1.016-.583-1.809-1.41-2.276-2.38a4.607 4.607 0 01-.353-3.063c.239-1.028.827-1.973 1.692-2.715.864-.742 1.965-1.247 3.164-1.451a7.133 7.133 0 013.57.301c1.13.402 2.095 1.081 2.774 1.953.679.872 1.041 1.897 1.041 2.946-.002 1.405-.654 2.753-1.812 3.747-1.158.994-2.728 1.553-4.367 1.555zM39.047 3.881c-1.988 0-3.93.506-5.583 1.453-1.652.947-2.94 2.294-3.7 3.869a7.49 7.49 0 00-.572 4.98c.388 1.673 1.345 3.21 2.75 4.415 1.405 1.206 3.195 2.027 5.144 2.36 1.95.332 3.97.161 5.806-.491 1.836-.653 3.405-1.758 4.509-3.175 1.104-1.418 1.693-3.085 1.693-4.79-.003-2.286-1.063-4.477-2.946-6.093-1.884-1.616-4.438-2.525-7.101-2.528zm0 13.923a6.963 6.963 0 01-3.227-.778c-.972-.51-1.76-1.24-2.279-2.11a4.671 4.671 0 01-.66-2.82c.088-.974.487-1.909 1.155-2.7.667-.792 1.576-1.41 2.627-1.787a7.127 7.127 0 013.328-.346 6.69 6.69 0 013.049 1.195c.869.632 1.517 1.457 1.873 2.385h-5.866v3.318h5.866c-.408 1.059-1.194 1.98-2.247 2.635-1.053.654-2.32 1.006-3.62 1.008z" fill="#FF70D9"/><path d="M22.655 20.128c-.453-.606-1.122-1.071-2.094-.92-2.246.351-1.053-1.403-2.667-.701-1.291.561-2.223 2.152-2.527 2.877-.093-.444-.449-1.418-1.123-1.755-.842-.42-1.123.281-1.614-.42-.491-.702-.491-1.685-.912-2.668-.421-.982 1.403-2.456 2.526-1.895 1.123.562 1.825.211 2.387 1.053.561.842 1.263 1.895 1.263-1.053 0-2.947 1.404-4.28 2.035-4.21.632.07 2.597-.633 2.246-1.334-.35-.702-2.246-1.053-2.246-1.685 0-.631.843-1.965 0-2.596-.842-.632-2.947-1.895-4.562-1.755-1.614.14-2.111.772-2.111 1.334 0 .561 2.111 1.614.988 2.316-1.123.701-4.772 1.824-4.772.701 0-1.122-.21-3.509.491-3.509.702 0 .912-1.754 1.334-1.684.42.07 2.175-.701 2.947-.35.237.107 1.015-.096 1.89-.46m6.52 18.714A11.946 11.946 0 0025 13c0-5.543-3.758-10.208-8.866-11.587m6.52 18.715A11.983 11.983 0 0113 25c-.705 0-1.395-.06-2.067-.177m0 0c.091-.522.21-.954.364-1.193.631-.982 2.737-.28 2.947-.772.21-.491-.702-1.053-1.614-1.474-.912-.42-2.457-.842-2.667-2.877-.21-2.036-1.193-1.685-1.404-1.966-.21-.28-2.667-1.052-3.439-2.456-.772-1.404 0-3.79 0-4.422 0-.446-1.936-.926-3.242-1.176m9.055 16.336C5.291 23.843 1 18.923 1 13c0-1.596.312-3.12.878-4.513m0 0C3.66 4.096 7.969 1 13 1c1.084 0 2.135.144 3.134.413" stroke="#FF70D9" stroke-width="1.5" stroke-linecap="square" stroke-linejoin="round"/></svg>